<?xml version="1.0" encoding="UTF-8" standalone="no"?>
<!DOCTYPE svg PUBLIC "-//W3C//DTD SVG 1.1//EN"
 "http://www.w3.org/Graphics/SVG/1.1/DTD/svg11.dtd">
<!-- Generated by graphviz version 2.44.0 (20200408.0750)
 -->
<!-- Title: G Pages: 1 -->
<svg width="274pt" height="292pt"
 viewBox="0.00 0.00 274.00 292.00" xmlns="http://www.w3.org/2000/svg" xmlns:xlink="http://www.w3.org/1999/xlink">
<g id="graph0" class="graph" transform="scale(1 1) rotate(0) translate(4 288)">
<title>G</title>
<polygon fill="white" stroke="transparent" points="-4,4 -4,-288 270,-288 270,4 -4,4"/>
<g id="clust1" class="cluster">
<title>cluster_1</title>
<polygon fill="none" stroke="black" stroke-dasharray="5,2" points="8,-224 8,-276 258,-276 258,-224 8,-224"/>
</g>
<g id="clust2" class="cluster">
<title>cluster_2</title>
<polygon fill="none" stroke="black" stroke-dasharray="5,2" points="34,-152 34,-204 196,-204 196,-152 34,-152"/>
</g>
<g id="clust3" class="cluster">
<title>cluster_3</title>
<polygon fill="none" stroke="black" stroke-dasharray="5,2" points="66,-80 66,-132 154,-132 154,-80 66,-80"/>
</g>
<g id="clust4" class="cluster">
<title>cluster_4</title>
<polygon fill="none" stroke="black" stroke-dasharray="5,2" points="75,-8 75,-60 145,-60 145,-8 75,-8"/>
</g>
<!-- cli -->
<g id="node1" class="node">
<title>cli</title>
<polygon fill="lightgrey" stroke="black" points="250,-268 196,-268 196,-232 250,-232 250,-268"/>
<text text-anchor="middle" x="223" y="-246.3" font-family="Times,serif" font-size="14.00">CLI</text>
</g>
<!-- command -->
<g id="node4" class="node">
<title>command</title>
<polygon fill="lightgrey" stroke="black" points="188,-196 114,-196 114,-160 188,-160 188,-196"/>
<text text-anchor="middle" x="151" y="-174.3" font-family="Times,serif" font-size="14.00">Command</text>
</g>
<!-- cli&#45;&gt;command -->
<g id="edge1" class="edge">
<title>cli&#45;&gt;command</title>
<path fill="none" stroke="black" d="M205.2,-231.7C196.4,-223.14 185.62,-212.66 176,-203.3"/>
<polygon fill="black" stroke="black" points="178.2,-200.57 168.59,-196.1 173.32,-205.58 178.2,-200.57"/>
</g>
<!-- cron -->
<g id="node2" class="node">
<title>cron</title>
<polygon fill="lightgrey" stroke="black" points="178,-268 124,-268 124,-232 178,-232 178,-268"/>
<text text-anchor="middle" x="151" y="-246.3" font-family="Times,serif" font-size="14.00">Cron</text>
</g>
<!-- cron&#45;&gt;command -->
<g id="edge2" class="edge">
<title>cron&#45;&gt;command</title>
<path fill="none" stroke="black" d="M151,-231.7C151,-223.98 151,-214.71 151,-206.11"/>
<polygon fill="black" stroke="black" points="154.5,-206.1 151,-196.1 147.5,-206.1 154.5,-206.1"/>
</g>
<!-- http -->
<g id="node3" class="node">
<title>http</title>
<polygon fill="lightgrey" stroke="black" points="105.5,-268 16.5,-268 16.5,-232 105.5,-232 105.5,-268"/>
<text text-anchor="middle" x="61" y="-246.3" font-family="Times,serif" font-size="14.00">HTTP Server</text>
</g>
<!-- route -->
<g id="node5" class="node">
<title>route</title>
<polygon fill="lightgrey" stroke="black" points="96,-196 42,-196 42,-160 96,-160 96,-196"/>
<text text-anchor="middle" x="69" y="-174.3" font-family="Times,serif" font-size="14.00">Route</text>
</g>
<!-- http&#45;&gt;route -->
<g id="edge3" class="edge">
<title>http&#45;&gt;route</title>
<path fill="none" stroke="black" d="M62.98,-231.7C63.86,-223.98 64.92,-214.71 65.9,-206.11"/>
<polygon fill="black" stroke="black" points="69.39,-206.44 67.05,-196.1 62.43,-205.64 69.39,-206.44"/>
</g>
<!-- controller -->
<g id="node6" class="node">
<title>controller</title>
<polygon fill="lightgrey" stroke="black" points="146,-124 74,-124 74,-88 146,-88 146,-124"/>
<text text-anchor="middle" x="110" y="-102.3" font-family="Times,serif" font-size="14.00">Controller</text>
</g>
<!-- command&#45;&gt;controller -->
<g id="edge5" class="edge">
<title>command&#45;&gt;controller</title>
<path fill="none" stroke="black" d="M140.87,-159.7C136.15,-151.64 130.44,-141.89 125.22,-132.98"/>
<polygon fill="black" stroke="black" points="128.09,-130.96 120.02,-124.1 122.05,-134.5 128.09,-130.96"/>
</g>
<!-- route&#45;&gt;controller -->
<g id="edge4" class="edge">
<title>route&#45;&gt;controller</title>
<path fill="none" stroke="black" d="M79.13,-159.7C83.85,-151.64 89.56,-141.89 94.78,-132.98"/>
<polygon fill="black" stroke="black" points="97.95,-134.5 99.98,-124.1 91.91,-130.96 97.95,-134.5"/>
</g>
<!-- model -->
<g id="node7" class="node">
<title>model</title>
<polygon fill="lightgrey" stroke="black" points="137,-52 83,-52 83,-16 137,-16 137,-52"/>
<text text-anchor="middle" x="110" y="-30.3" font-family="Times,serif" font-size="14.00">Model</text>
</g>
<!-- controller&#45;&gt;model -->
<g id="edge6" class="edge">
<title>controller&#45;&gt;model</title>
<path fill="none" stroke="black" d="M110,-87.7C110,-79.98 110,-70.71 110,-62.11"/>
<polygon fill="black" stroke="black" points="113.5,-62.1 110,-52.1 106.5,-62.1 113.5,-62.1"/>
</g>
</g>
</svg>
